Coordinates
version=1
nRows=9
nColumns=24
inDegrees=yes

Units are S.I. units (second, meters, Newtons, ...)
If the header above contains a line with 'inDegrees', this indicates whether rotational values are in degrees (yes) or radians (no).

endheader
time	pelvis_tilt	pelvis_list	pelvis_rotation	pelvis_tx	pelvis_ty	pelvis_tz	hip_flexion_r	hip_adduction_r	hip_rotation_r	knee_angle_r	ankle_angle_r	subtalar_angle_r	mtp_angle_r	hip_flexion_l	hip_adduction_l	hip_rotation_l	knee_angle_l	ankle_angle_l	subtalar_angle_l	mtp_angle_l	lumbar_extension	lumbar_bending	lumbar_rotation
      1.50000000	      7.56768080	     -0.21641072	     -2.89955995	      0.60118715	      1.04117184	      0.00375796	      3.12538802	     -7.79571665	     -8.74363780	    -66.81548036	     -4.37064413	     -0.00000197	      0.00000000	      5.41130724	      2.40408288	     -3.45967125	    -17.29868235	      2.78897389	      0.00000521	      0.00000000	    -22.75508077	     -3.41453814	     -2.72327246
      1.51700000	      7.62479040	     -0.57254730	     -2.28020357	      0.59989964	      1.04390264	      0.00132887	      5.33499348	     -7.28400152	     -9.01022368	    -67.78309027	     -2.55132308	     -0.00000198	      0.00000000	      3.64037903	      2.26527150	     -2.63188931	    -16.10704930	      3.22998209	      0.00000508	      0.00000000	    -22.84120285	     -2.66716480	     -3.43653616
      1.53300000	      7.68186077	     -0.88909969	     -1.76119716	      0.59872933	      1.04628706	     -0.00097118	      7.41379561	     -6.68335811	     -9.08406027	    -67.94106917	     -1.18027296	     -0.00000168	      0.00000000	      1.77682902	      2.13121527	     -1.91913645	    -14.73171139	      3.59089053	      0.00000487	      0.00000000	    -22.93065922	     -2.01931461	     -4.27060579
      1.55000000	      7.49989531	     -0.99194476	     -1.42404741	      0.59639580	      1.04741697	     -0.00282261	      9.83047890	     -6.26018528	     -8.99110677	    -67.60796538	     -0.18837258	     -0.00000084	      0.00000000	      0.40961417	      2.16293260	     -1.48974473	    -13.68988055	      4.00806470	      0.00000481	      0.00000000	    -22.87309532	     -1.69415593	     -4.67980966
      1.56700000	      7.55869006	     -1.40372722	     -0.65238900	      0.59511160	      1.04888954	     -0.00478216	     11.44213938	     -5.51480364	     -9.44504846	    -66.10472617	      0.40525198	     -0.00000012	      0.00000000	     -1.33486349	      1.81527850	     -0.59063935	    -12.51199863	      4.46028238	      0.00000465	      0.00000000	    -22.97470704	     -0.92369803	     -5.38523330
      1.58300000	      7.52321000	     -1.63990139	     -0.23687287	      0.59316294	      1.04951443	     -0.00619093	     13.15438072	     -4.93871331	     -9.58237498	    -64.05704447	      0.79529565	      0.00000086	      0.00000000	     -2.83510807	      1.61804876	     -0.06804415	    -11.55792366	      4.97883059	      0.00000472	      0.00000000	    -23.03598235	     -0.45447144	     -5.83545968
      1.60000000	      7.57293037	     -1.87091458	     -0.00273461	      0.59210639	      1.04994628	     -0.00732544	     14.47222870	     -4.33665487	     -9.59430239	    -61.20033075	      1.06255954	      0.00000143	      0.00000000	     -4.66975288	      1.41224059	      0.32668493	    -10.22213264	      5.38700833	      0.00000460	      0.00000000	    -23.13424621	     -0.00321610	     -5.99926335
      1.61700000	      7.53289593	     -1.83897428	      0.33195274	      0.58932304	      1.04954176	     -0.00847794	     15.76074237	     -4.12907700	     -9.82607564	    -57.76892724	      1.32023897	      0.00000175	      0.00000000	     -6.14659994	      1.45275556	      0.87659543	     -9.16699032	      5.76423318	      0.00000437	      0.00000000	    -23.37319505	      0.12821447	     -6.18614781
      1.63300000	      7.23026451	     -1.90588134	      0.44967864	      0.58739128	      1.04810742	     -0.00926577	     17.01769790	     -3.85486391	    -10.13104911	    -53.63046742	      1.52527173	      0.00000156	      0.00000000	     -7.28723441	      1.40449268	      1.13106446	     -8.37847560	      6.40278717	      0.00000429	      0.00000000	    -23.08114815	      0.34771837	     -6.32190096
